<svg xmlns="http://www.w3.org/2000/svg" width="210" height="45.148" viewBox="0 0 210 45.148"><defs><style>.a{fill:#1f173a;}.b{fill:#5519c2;}.c{fill:#4612b5;}.d{fill:#6a35db;}.e{fill:#fff;}</style></defs><g transform="translate(-724.068 -292.388)"><g transform="translate(780.131 301.696)"><g transform="translate(0)"><path class="a" d="M828.077,329.5a7.547,7.547,0,0,1-2.132.3c-2.973,0-4.144-1.321-5.194-3.333l-2.283-4.384h-3.333v7.566h-4.143v-20.6h8.167c4.624,0,7.476,2.343,7.476,6.546a5.939,5.939,0,0,1-3.783,5.825l1.892,3.723a2,2,0,0,0,1.921,1.291,3.953,3.953,0,0,0,1.171-.15Zm-12.942-10.63h4.024a3.2,3.2,0,1,0,0-6.4h-4.024Z" transform="translate(-810.992 -307.614)"/><path class="a" d="M844.451,311.955a2.535,2.535,0,0,1-2.642-2.552,2.658,2.658,0,0,1,5.315,0A2.542,2.542,0,0,1,844.451,311.955Zm-2.072,2.192h4.144v14.712H842.38Z" transform="translate(-821.933 -306.82)"/><path class="a" d="M871.267,325.213c0,4.564-2.552,7.747-6.545,7.747a4.813,4.813,0,0,1-4.414-2.252v8.168h-4.114V318.067h3.993l.09,2.161a5.18,5.18,0,0,1,4.594-2.282C868.594,317.946,871.267,320.559,871.267,325.213Zm-4.174.18c0-2.432-1.261-3.993-3.273-3.993a3.519,3.519,0,0,0-3.513,3.573v.93a3.506,3.506,0,0,0,3.483,3.6C865.743,329.506,867.093,327.885,867.093,325.393Z" transform="translate(-827.04 -310.77)"/><path class="a" d="M898.587,326.354H888.228c.3,2.252,1.621,3.393,3.543,3.393,1.982,0,2.7-1.02,2.942-1.8h3.814c-.48,2.552-2.522,5.015-6.966,5.015-4.474,0-7.3-3.093-7.3-7.476a7.16,7.16,0,0,1,7.356-7.537c4.474,0,6.966,3.123,6.966,7.627Zm-10.3-2.372h6.456c-.27-2.1-1.411-2.973-3.093-2.973A3.274,3.274,0,0,0,888.288,323.982Z" transform="translate(-837.006 -310.77)"/><path class="a" d="M926.147,323.591v9.218h-4.113v-8.286c0-1.862-.871-3-2.612-3a2.846,2.846,0,0,0-2.973,3.063v8.227h-4.114V318.1H916.3l.119,2.161a5.071,5.071,0,0,1,4.595-2.312C924.346,317.946,926.147,320.289,926.147,323.591Z" transform="translate(-846.972 -310.77)"/><path class="a" d="M951.917,325.179H943.6l-1.471,4.473h-4.144l7.357-20.6h4.834l7.356,20.6h-4.143Zm-1.111-3.273-3.033-9.189-3.062,9.189Z" transform="translate(-856.079 -307.614)"/><path class="a" d="M987.834,325.213c0,4.564-2.552,7.747-6.545,7.747a4.813,4.813,0,0,1-4.414-2.252v8.168h-4.114V318.067h3.994l.09,2.161a5.18,5.18,0,0,1,4.594-2.282C985.162,317.946,987.834,320.559,987.834,325.213Zm-4.173.18c0-2.432-1.261-3.993-3.273-3.993a3.519,3.519,0,0,0-3.513,3.573v.93a3.506,3.506,0,0,0,3.483,3.6C982.31,329.506,983.661,327.885,983.661,325.393Z" transform="translate(-868.425 -310.77)"/><path class="a" d="M1017.116,325.213c0,4.564-2.552,7.747-6.546,7.747a4.813,4.813,0,0,1-4.414-2.252v8.168h-4.114V318.067h3.994l.09,2.161a5.179,5.179,0,0,1,4.594-2.282C1014.443,317.946,1017.116,320.559,1017.116,325.213Zm-4.174.18c0-2.432-1.261-3.993-3.273-3.993a3.519,3.519,0,0,0-3.514,3.573v.93a3.506,3.506,0,0,0,3.484,3.6C1011.591,329.506,1012.942,327.885,1012.942,325.393Z" transform="translate(-878.821 -310.77)"/><path class="a" d="M1036.3,332.96c-4.143,0-6.245-1.681-6.276-4.744l3.513.03c.09,1.2.9,1.862,2.7,1.862,1.742,0,2.492-.511,2.462-1.352,0-2.762-8.377-.51-8.377-6.455,0-2.7,2.4-4.354,6.275-4.354,3.754,0,5.855,1.742,5.885,4.655h-3.573c-.09-1.2-.9-1.8-2.342-1.8-1.561,0-2.252.54-2.252,1.382,0,2.7,8.377.33,8.377,6.456C1042.721,331.368,1040.229,332.96,1036.3,332.96Z" transform="translate(-888.754 -310.77)"/></g></g><path class="b" d="M774,337.536,749.036,323l-24.968,14.537,24.968-45.148Z" transform="translate(0)"/><path class="c" d="M787.741,337.535l-20.511-19.712-4.453-7.261V292.388Z" transform="translate(-13.743)"/><path class="d" d="M774,351.536,749.036,337l-24.968,14.537,20.512-19.71a4.995,4.995,0,0,0,8.908,0Z" transform="translate(0 -14)"/><circle class="e" cx="4.997" cy="4.997" r="4.997" transform="translate(744.037 310.562)"/></g></svg>