<svg xmlns="http://www.w3.org/2000/svg" width="19.696" height="19.696" viewBox="0 0 19.696 19.696"><defs><style>.a{fill:#2cb742;}.b{fill:#fff;}</style></defs><path class="a" d="M0,19.7l1.694-5.081a9.677,9.677,0,1,1,3.821,3.63Z"/><path class="b" d="M24.118,19.5a7.013,7.013,0,0,0-2.095-1.81c-.373-.213-.823-.236-1.035.143a8.536,8.536,0,0,1-.672.735,1.252,1.252,0,0,1-1.78-.177l-1.352-1.352L15.832,15.69a1.252,1.252,0,0,1-.177-1.78,8.536,8.536,0,0,1,.735-.672c.379-.213.355-.663.143-1.035a7.013,7.013,0,0,0-1.81-2.095.926.926,0,0,0-1.088.164l-.6.6c-1.894,1.894-.961,4.032.933,5.926L15.7,18.525l1.731,1.731c1.894,1.894,4.032,2.826,5.926.933l.6-.6A.926.926,0,0,0,24.118,19.5Z" transform="translate(-7.925 -6.604)"/></svg>